<svg xmlns="http://www.w3.org/2000/svg" width="256" height="256" viewBox="0 0 100 100"><rect width="100" height="100" rx="20" fill="#e9756c"></rect><path d="M27.53 74.05L27.53 74.05L27.53 57.25Q27.53 48.92 23.33 48.92L23.33 48.92Q19.83 48.92 17.97 52.77Q16.12 56.62 16.12 66.34L16.12 66.34L16.12 77.34Q15.42 78.31 13.67 78.31Q11.92 78.31 10.87 77.23Q9.82 76.15 9.82 74.05L9.82 74.05L9.82 47.45Q10.52 46.47 12.27 46.47Q14.02 46.47 15.07 47.55Q16.12 48.64 16.12 50.73L16.12 50.73Q18.50 46.47 24.17 46.47L24.17 46.47Q30.82 46.47 33.13 52.14L33.13 52.14Q35.51 46.47 42.02 46.47L42.02 46.47Q46.57 46.47 49.26 49.34Q51.96 52.20 51.96 57.59L51.96 57.59L51.96 67.53Q51.96 71.53 53.22 73.56Q54.48 75.59 56.96 75.59Q59.45 75.59 61.34 72.47Q63.23 69.36 63.23 61.94L63.23 61.94Q63.30 61.52 64.28 61.52L64.28 61.52Q65.54 61.52 65.54 65.23L65.54 65.23Q65.54 71.17 62.98 74.75Q60.43 78.31 55.53 78.31Q50.63 78.31 48.00 74.95Q45.38 71.59 45.38 65.44L45.38 65.44L45.38 57.25Q45.38 48.92 41.18 48.92L41.18 48.92Q34.04 48.92 34.04 66.48L34.04 66.48L34.04 77.34Q33.34 78.31 31.55 78.31Q29.77 78.31 28.65 77.23Q27.53 76.15 27.53 74.05ZM63.37 65.86L63.37 65.86L63.37 38.98Q63.37 29.88 65.12 25.78Q66.87 21.68 71.84 21.68L71.84 21.68Q74.50 21.68 75.97 23.92Q77.44 26.16 77.44 30.30L77.44 30.30Q77.44 37.78 69.67 45.55L69.67 45.55L69.67 49.27Q72.26 46.47 76.25 46.47L76.25 46.47Q82.34 46.47 86.26 50.59Q90.18 54.73 90.18 62.29Q90.18 69.84 86.40 74.08Q82.62 78.31 76.63 78.31Q70.65 78.31 67.01 74.89Q63.37 71.45 63.37 65.86ZM83.53 62.29Q83.53 55.01 81.99 52.10Q80.45 49.20 76.53 49.20Q72.61 49.20 71.14 51.65Q69.67 54.09 69.67 60.05L69.67 60.05L69.67 63.69Q69.67 69.98 71.31 72.78Q72.96 75.59 76.74 75.59Q80.52 75.59 82.03 72.58Q83.53 69.56 83.53 62.29ZM71.91 24.41L71.91 24.41Q70.51 24.41 70.09 27.25Q69.67 30.09 69.67 39.12L69.67 39.12L69.67 42.20Q74.43 36.03 74.43 30.23Q74.43 24.41 71.91 24.41Z" fill="#fff"></path></svg>