<svg xmlns="http://www.w3.org/2000/svg" width="256" height="256" viewBox="0 0 100 100"><rect width="100" height="100" rx="20" fill="#e9756c"></rect><path d="M57.10 34.50L57.10 34.50L57.10 70.90Q57.10 81.50 49.90 81.50L49.90 81.50Q42.50 81.50 42.50 70.90L42.50 70.90L42.50 34.50Q42.50 25.50 34.90 25.50L34.90 25.50Q28.70 25.50 28.70 34.50L28.70 34.50L28.70 70.90Q28.70 81.50 21.10 81.50L21.10 81.50Q13.70 81.50 13.70 72.30L13.70 72.30L13.70 32.30Q13.70 18.50 29.90 18.50L29.90 18.50L70.90 18.50Q86.30 18.90 86.30 32.10L86.30 32.10L86.30 71.90Q86.30 81.50 78.90 81.50L78.90 81.50Q71.50 81.50 71.50 70.90L71.50 70.90L71.50 34.50Q71.50 25.50 64.50 25.50L64.50 25.50Q57.10 25.50 57.10 34.50Z" fill="#fff"></path></svg>